ffmpeg version 6.1.1-3ubuntu5 Copyright (c) 2000-2023 the FFmpeg developers
  built with gcc 13 (Ubuntu 13.2.0-23ubuntu3)
  configuration: --prefix=/usr --extra-version=3ubuntu5 --toolchain=hardened --libdir=/usr/lib/x86_64-linux-gnu --incdir=/usr/include/x86_64-linux-gnu --arch=amd64 --enable-gpl --disable-stripping --disable-omx --enable-gnutls --enable-libaom --enable-libass --enable-libbs2b --enable-libcaca --enable-libcdio --enable-libcodec2 --enable-libdav1d --enable-libflite --enable-libfontconfig --enable-libfreetype --enable-libfribidi --enable-libglslang --enable-libgme --enable-libgsm --enable-libharfbuzz --enable-libmp3lame --enable-libmysofa --enable-libopenjpeg --enable-libopenmpt --enable-libopus --enable-librubberband --enable-libshine --enable-libsnappy --enable-libsoxr --enable-libspeex --enable-libtheora --enable-libtwolame --enable-libvidstab --enable-libvorbis --enable-libvpx --enable-libwebp --enable-libx265 --enable-libxml2 --enable-libxvid --enable-libzimg --enable-openal --enable-opencl --enable-opengl --disable-sndio --enable-libvpl --disable-libmfx --enable-libdc1394 --enable-libdrm --enable-libiec61883 --enable-chromaprint --enable-frei0r --enable-ladspa --enable-libbluray --enable-libjack --enable-libpulse --enable-librabbitmq --enable-librist --enable-libsrt --enable-libssh --enable-libsvtav1 --enable-libx264 --enable-libzmq --enable-libzvbi --enable-lv2 --enable-sdl2 --enable-libplacebo --enable-librav1e --enable-pocketsphinx --enable-librsvg --enable-libjxl --enable-shared
  libavutil      58. 29.100 / 58. 29.100
  libavcodec     60. 31.102 / 60. 31.102
  libavformat    60. 16.100 / 60. 16.100
  libavdevice    60.  3.100 / 60.  3.100
  libavfilter     9. 12.100 /  9. 12.100
  libswscale      7.  5.100 /  7.  5.100
  libswresample   4. 12.100 /  4. 12.100
  libpostproc    57.  3.100 / 57.  3.100
Input #0, video4linux2,v4l2, from '/dev/video0':
  Duration: N/A, start: 3711.369558, bitrate: 147456 kb/s
  Stream #0:0: Video: rawvideo (YUY2 / 0x32595559), yuyv422, 640x480, 147456 kb/s, 30 fps, 30 tbr, 1000k tbn
Stream mapping:
  Stream #0:0 -> #0:0 (rawvideo (native) -> h264 (libx264))
Press [q] to stop, [?] for help
[libx264 @ 0x5acfd50511c0] using cpu capabilities: MMX2 SSE2Fast SSSE3 SSE4.2 AVX FMA3 BMI2 AVX2
[libx264 @ 0x5acfd50511c0] profile Constrained Baseline, level 3.1, 4:2:0, 8-bit
Output #0, h264, to 'pipe:':
  Metadata:
    encoder         : Lavf60.16.100
  Stream #0:0: Video: h264, yuv420p(tv, progressive), 640x480, q=2-31, 30 fps, 30 tbn
    Metadata:
      encoder         : Lavc60.31.102 libx264
    Side data:
      cpb: bitrate max/min/avg: 0/0/0 buffer size: 0 vbv_delay: N/A
frame=    0 fps=0.0 q=20.0 size=       0kB time=00:00:00.00 bitrate=N/A speed=N/A    frame=   19 fps=0.0 q=24.0 size=     178kB time=00:00:00.60 bitrate=2432.5kbits/s dup=2 drop=0 speed= 1.2x    frame=   34 fps= 33 q=25.0 size=     330kB time=00:00:01.13 bitrate=2386.7kbits/s dup=2 drop=0 speed=1.09x    frame=   50 fps= 32 q=24.0 size=     463kB time=00:00:01.66 bitrate=2277.4kbits/s dup=2 drop=0 speed=1.06x    frame=   66 fps= 31 q=24.0 size=     599kB time=00:00:02.20 bitrate=2232.2kbits/s dup=2 drop=0 speed=1.05x    frame=   81 fps= 31 q=22.0 size=     702kB time=00:00:02.70 bitrate=2129.3kbits/s dup=2 drop=0 speed=1.04x    frame=   97 fps= 31 q=23.0 size=     825kB time=00:00:03.23 bitrate=2090.3kbits/s dup=2 drop=0 speed=1.03x    frame=  112 fps= 31 q=22.0 size=     935kB time=00:00:03.73 bitrate=2051.6kbits/s dup=2 drop=0 speed=1.03x    [vost#0:0/libx264 @ 0x5acfd5050e00] Error submitting a packet to the muxer: Broken pipe
[out#0/h264 @ 0x5acfd504fb00] Error muxing a packet
[out#0/h264 @ 0x5acfd504fb00] Error writing trailer: Broken pipe
[out#0/h264 @ 0x5acfd504fb00] Error closing file: Broken pipe
[out#0/h264 @ 0x5acfd504fb00] video:972kB audio:0kB subtitle:0kB other streams:0kB global headers:0kB muxing overhead: unknown
frame=  116 fps= 30 q=22.0 Lsize=     964kB time=00:00:03.86 bitrate=2042.8kbits/s dup=2 drop=0 speed=1.02x    
[libx264 @ 0x5acfd50511c0] frame I:4     Avg QP:20.50  size: 28310
[libx264 @ 0x5acfd50511c0] frame P:113   Avg QP:23.49  size:  7867
[libx264 @ 0x5acfd50511c0] mb I  I16..4: 100.0%  0.0%  0.0%
[libx264 @ 0x5acfd50511c0] mb P  I16..4: 10.4%  0.0%  0.0%  P16..4: 50.5%  0.0%  0.0%  0.0%  0.0%    skip:39.1%
[libx264 @ 0x5acfd50511c0] coded y,uvDC,uvAC intra: 33.1% 49.3% 25.1% inter: 23.3% 28.2% 1.6%
[libx264 @ 0x5acfd50511c0] i16 v,h,dc,p: 40% 20% 17% 23%
[libx264 @ 0x5acfd50511c0] i8c dc,h,v,p: 53% 15% 24%  7%
[libx264 @ 0x5acfd50511c0] kb/s:2055.74
Conversion failed!
